<svg xmlns="http://www.w3.org/2000/svg" width="171" height="41" fill="none"><path fill="#fff" d="M.15 40V1h7v33.35H24.5V40H.15Zm53.777.7c-4.034 0-7.4-.817-10.1-2.45-2.667-1.667-4.667-4.017-6-7.05-1.3-3.033-1.95-6.6-1.95-10.7 0-4.133.65-7.7 1.95-10.7 1.333-3.033 3.333-5.367 6-7 2.7-1.667 6.066-2.5 10.1-2.5 4.1 0 7.483.833 10.15 2.5 2.666 1.633 4.65 3.967 5.95 7 1.333 3 2 6.567 2 10.7 0 4.1-.667 7.667-2 10.7-1.3 3.033-3.284 5.383-5.95 7.05-2.667 1.633-6.05 2.45-10.15 2.45Zm0-5.4c3.733 0 6.483-1.283 8.25-3.85 1.766-2.6 2.65-6.25 2.65-10.95 0-4.7-.884-8.333-2.65-10.9-1.767-2.6-4.517-3.9-8.25-3.9-3.7 0-6.434 1.3-8.2 3.9-1.767 2.567-2.65 6.2-2.65 10.9s.883 8.35 2.65 10.95c1.766 2.567 4.5 3.85 8.2 3.85Zm48.126 5.4c-3.633 0-6.7-.85-9.2-2.55-2.5-1.7-4.4-4.083-5.7-7.15-1.3-3.067-1.95-6.6-1.95-10.6 0-4.067.65-7.6 1.95-10.6 1.334-3.033 3.317-5.367 5.95-7 2.667-1.667 5.967-2.5 9.9-2.5 3.267 0 6.033.567 8.3 1.7 2.267 1.133 4.05 2.733 5.35 4.8 1.3 2.033 2.133 4.433 2.5 7.2h-6.8c-.4-2.667-1.4-4.717-3-6.15-1.6-1.433-3.767-2.15-6.5-2.15-3.6 0-6.266 1.3-8 3.9-1.733 2.6-2.6 6.2-2.6 10.8 0 4.767.917 8.467 2.75 11.1 1.834 2.6 4.517 3.9 8.05 3.9 2.967 0 5.267-.867 6.9-2.6 1.667-1.767 2.583-4.183 2.75-7.25h-11.85v-5.3h18.35V40h-5.3v-4.65h-1.2c-.7 1.433-1.883 2.683-3.55 3.75-1.633 1.067-4 1.6-7.1 1.6Zm50.058 0c-4.033 0-7.4-.817-10.1-2.45-2.667-1.667-4.667-4.017-6-7.05-1.3-3.033-1.95-6.6-1.95-10.7 0-4.133.65-7.7 1.95-10.7 1.333-3.033 3.333-5.367 6-7 2.7-1.667 6.067-2.5 10.1-2.5 4.1 0 7.483.833 10.15 2.5 2.667 1.633 4.65 3.967 5.95 7 1.333 3 2 6.567 2 10.7 0 4.1-.667 7.667-2 10.7-1.3 3.033-3.283 5.383-5.95 7.05-2.667 1.633-6.05 2.45-10.15 2.45Zm0-5.4c3.733 0 6.483-1.283 8.25-3.85 1.767-2.6 2.65-6.25 2.65-10.95 0-4.7-.883-8.333-2.65-10.9-1.767-2.6-4.517-3.9-8.25-3.9-3.7 0-6.433 1.3-8.2 3.9-1.767 2.567-2.65 6.2-2.65 10.9s.883 8.35 2.65 10.95c1.767 2.567 4.5 3.85 8.2 3.85Z"/></svg>